<svg xmlns="http://www.w3.org/2000/svg" viewBox="0 0 32 32" width="32" height="32">
  <defs>
    <linearGradient id="cloudGradient" x1="0%" y1="0%" x2="100%" y2="0%">
      <stop offset="0%" style="stop-color:#FF6B35;stop-opacity:1" />
      <stop offset="50%" style="stop-color:#FFD23F;stop-opacity:1" />
      <stop offset="100%" style="stop-color:#FF8C42;stop-opacity:1" />
    </linearGradient>
  </defs>
  
  <!-- Cloud shape -->
  <path d="M 8 20 Q 6 18 6 16 Q 6 12 9 12 Q 9 8 13 8 Q 16 8 18 10 Q 20 8 23 8 Q 26 8 26 11 Q 28 11 28 14 Q 28 16 26 18 L 24 20 L 22 18 Q 20 20 18 20 Q 16 20 14 18 L 12 20 Z" 
        fill="url(#cloudGradient)" />
  
  <!-- Lightning bolt -->
  <path d="M 12 8 L 10 16 L 14 16 L 12 24 L 20 12 L 16 12 Z" 
        fill="#FF6B35" />
  
  <!-- Toggle switch (simplified) -->
  <rect x="20" y="18" width="6" height="4" rx="2" fill="#E85D04" />
  <circle cx="21" cy="20" r="1.5" fill="#4A90E2" />
</svg>

